<?xml version="1.0" encoding="utf-8"?>
<!-- Generator: Adobe Illustrator 17.0.0, SVG Export Plug-In . SVG Version: 6.00 Build 0)  -->
<!DOCTYPE svg PUBLIC "-//W3C//DTD SVG 1.1//EN" "http://www.w3.org/Graphics/SVG/1.1/DTD/svg11.dtd">
<svg version="1.1" id="Layer_1" xmlns="http://www.w3.org/2000/svg" xmlns:xlink="http://www.w3.org/1999/xlink" x="0px" y="0px"
	 width="38.875px" height="40.583px" viewBox="0 0 38.875 40.583" enable-background="new 0 0 38.875 40.583" xml:space="preserve">
<g>
	<g>
		<linearGradient id="SVGID_1_" gradientUnits="userSpaceOnUse" x1="31.1831" y1="8.6864" x2="18.2295" y2="40.8854">
			<stop  offset="0" style="stop-color:#BED639"/>
			<stop  offset="0.8037" style="stop-color:#01A79D"/>
		</linearGradient>
		<path fill="url(#SVGID_1_)" d="M38.709,22.038c-1.006,0.127-1.956,0.523-2.663,1.212c-0.078,0.076-0.13,0.163-0.199,0.242
			c0.251-0.589,0.632-1.16,1.15-1.665c0.449-0.442,0.967-0.795,1.517-1.067c-0.335-1.747-0.898-3.396-1.654-4.942
			c-0.739,0.2-1.429,0.544-1.972,1.065c-0.078,0.077-0.13,0.163-0.202,0.243c0.254-0.59,0.641-1.159,1.169-1.664
			c0.178-0.173,0.377-0.315,0.576-0.463c-1.022-1.901-2.266-3.657-3.652-5.22c-0.273,0.265-0.52,0.557-0.694,0.909
			c-0.042,0.092-0.062,0.189-0.098,0.28c0.03-0.544,0.167-1.087,0.387-1.614C26.834,3.33,19.773,0,19.773,0
			c1.713,3.029,1.133,6.004-0.183,9.077c0.15,0.211,0.3,0.425,0.415,0.666c0.305,0.61,0.462,1.25,0.488,1.889
			c-0.032-0.094-0.052-0.19-0.098-0.281c-0.276-0.565-0.709-1.005-1.224-1.342c-0.868,1.855-1.952,3.752-2.913,5.719
			c0.618,0.281,1.195,0.66,1.696,1.139c0.53,0.508,0.911,1.076,1.168,1.666c-0.072-0.08-0.124-0.167-0.201-0.242
			c-0.85-0.815-2.028-1.235-3.259-1.267c-0.684,1.522-1.247,3.089-1.559,4.714c0.992,0.258,1.943,0.75,2.704,1.495
			c0.521,0.508,0.902,1.075,1.153,1.666c-0.072-0.079-0.124-0.166-0.199-0.243c-0.986-0.961-2.426-1.362-3.867-1.232
			c-0.016,0.253-0.062,0.501-0.066,0.757c-0.084,6.206,4.502,11.346,10.443,12.338c2.491-4.406,3.963-9.654,3.963-15.321
			c0-6.348-1.834-12.183-4.89-16.883c3.652,4.911,5.873,11.3,5.873,18.305c0,5.136-1.218,9.928-3.295,14.063
			c0.143,0.005,0.284,0.022,0.43,0.022c6.917,0,12.523-5.608,12.523-12.524C38.875,23.447,38.794,22.742,38.709,22.038z"/>
	</g>
	<linearGradient id="SVGID_2_" gradientUnits="userSpaceOnUse" x1="5.2589" y1="21.6079" x2="16.3623" y2="36.0424">
		<stop  offset="0" style="stop-color:#BED639"/>
		<stop  offset="0.8037" style="stop-color:#01A79D"/>
	</linearGradient>
	<path fill="url(#SVGID_2_)" d="M18.936,26.028c-0.471,0.487-0.79,1.086-0.869,1.735c-0.009,0.074,0,0.138-0.003,0.209
		c-0.114-0.41-0.156-0.859-0.101-1.338c0.045-0.415,0.166-0.809,0.335-1.182c-0.899-0.756-1.875-1.371-2.91-1.854
		c-0.3,0.413-0.507,0.876-0.57,1.371c-0.01,0.073,0,0.14-0.003,0.211c-0.117-0.41-0.153-0.863-0.094-1.344
		c0.023-0.164,0.065-0.32,0.101-0.477c-1.318-0.554-2.689-0.939-4.053-1.163c-0.029,0.25-0.029,0.5,0.026,0.756
		c0.017,0.064,0.043,0.122,0.066,0.183c-0.216-0.291-0.372-0.629-0.479-0.991C5.023,21.354,0,22.587,0,22.587
		c2.148,0.841,3.089,2.615,3.695,4.744c0.163,0.045,0.332,0.094,0.491,0.169c0.408,0.187,0.759,0.453,1.035,0.769
		c-0.055-0.032-0.103-0.072-0.166-0.103c-0.381-0.175-0.788-0.221-1.191-0.18c0.328,1.319,0.56,2.745,0.886,4.159
		c0.433-0.112,0.891-0.16,1.344-0.12c0.488,0.039,0.921,0.169,1.295,0.369c-0.064-0.012-0.13-0.036-0.202-0.043
		c-0.775-0.062-1.556,0.213-2.204,0.71c0.287,1.066,0.648,2.106,1.162,3.072c0.622-0.282,1.315-0.423,2.018-0.358
		c0.478,0.044,0.912,0.178,1.287,0.378c-0.069-0.011-0.132-0.034-0.206-0.042c-0.904-0.083-1.816,0.309-2.499,0.978
		c0.097,0.137,0.176,0.283,0.28,0.416c2.543,3.23,7.045,3.961,10.515,1.993c-0.554-3.302-1.986-6.617-4.346-9.532
		c-2.647-3.266-6.026-5.505-9.558-6.647c3.926,1.004,7.734,3.364,10.657,6.966c2.139,2.643,3.51,5.617,4.164,8.611
		c0.081-0.057,0.157-0.107,0.231-0.168c3.558-2.885,4.105-8.105,1.224-11.664C19.604,26.684,19.271,26.357,18.936,26.028z"/>
</g>
</svg>
